<?xml version="1.0" encoding="utf-8"?>
<!-- Svg Vector Icons : http://www.onlinewebfonts.com/icon -->
<!DOCTYPE svg PUBLIC "-//W3C//DTD SVG 1.1//EN" "http://www.w3.org/Graphics/SVG/1.1/DTD/svg11.dtd">
<svg version="1.1" xmlns="http://www.w3.org/2000/svg" xmlns:xlink="http://www.w3.org/1999/xlink" x="0px" y="0px" viewBox="0 0 1000 1000" enable-background="new 0 0 1000 1000" xml:space="preserve">
<metadata> Svg Vector Icons : http://www.onlinewebfonts.com/icon </metadata>
<g><g transform="translate(0.000000,478.000000) scale(0.100000,-0.100000)"><path d="M5168.2,4669.8C3518,4529.6,2103,3624,1271.7,2180.1c-53.6-94.9-94.9-179.5-90.8-189.8c2.1-10.3,358.9-292.9,790-627.1l783.9-606.5l28.9,64c173.3,375.4,224.8,474.4,319.7,618.8c464.1,697.2,1169.6,1161.4,1970,1301.6c251.7,43.3,713.7,43.3,961.3,0c493-86.6,940.6-292.9,1305.7-604.4l109.3-94.9l684.9,686.9l684.9,684.8l-92.8,82.5c-709.6,627.1-1615.2,1033.5-2568.2,1151C5908.8,4678.1,5399.3,4690.5,5168.2,4669.8z"/><path d="M1970.9-1797c-431.1-334.2-785.9-618.8-790-633.3c-6.2-35.1,177.4-354.8,336.2-583.8c1194.3-1712.1,3279.8-2467.1,5361.2-1941.1c647.7,165,1221.1,447.6,1720.3,854c105.2,84.6,185.7,160.9,175.3,171.2c-8.2,8.3-358.9,280.5-775.6,604.4l-761.2,587.9l-76.3-47.4c-243.4-154.7-600.3-295-926.2-363c-297.1-64-856.1-78.4-1140.7-30.9c-763.2,125.8-1485.2,581.7-1934.9,1217c-107.3,152.6-301.2,515.7-385.7,726.1C2756.9-1192.6,2707.4-1227.7,1970.9-1797z"/></g></g>
</svg>